<svg xmlns="http://www.w3.org/2000/svg" xmlns:xlink="http://www.w3.org/1999/xlink" contentStyleType="text/css" data-diagram-type="CLASS" height="716px" preserveAspectRatio="none" style="width:1687px;height:716px;background:#FFFFFF;" version="1.1" viewBox="0 0 1687 716" width="1687px" zoomAndPan="magnify"><?plantuml 1.2026.4?><defs/><g><!--class Klassifikasjon--><g class="entity" data-qualified-name="Klassifikasjon" data-source-line="4" id="ent0001"><a href="" target="_top" title="Ei klassifikasjon - ein systematisk struktur av kategoriar brukt til &#229; klassifisere data (skos:ConceptScheme)." xlink:actuate="onRequest" xlink:href="" xlink:show="new" xlink:title="Ei klassifikasjon - ein systematisk struktur av kategoriar brukt til &#229; klassifisere data (skos:ConceptScheme)." xlink:type="simple"><rect fill="#F1F1F1" height="213.5625" rx="2.5" ry="2.5" style="stroke:#181818;stroke-width:0.5;" width="251.2236" x="570.42" y="167.19"/><text fill="#000000" font-family="sans-serif" font-size="14" lengthAdjust="spacing" textLength="94.2539" x="648.9049" y="185.1851">Klassifikasjon</text><line style="stroke:#181818;stroke-width:0.5;" x1="571.42" x2="820.6436" y1="193.4869" y2="193.4869"/><text fill="#000000" font-family="sans-serif" font-size="14" lengthAdjust="spacing" textLength="94.0625" x="576.42" y="210.482">id : uriorcurie</text><text fill="#000000" font-family="sans-serif" font-size="14" lengthAdjust="spacing" textLength="185.8691" x="576.42" y="226.7789">identifikator_literal : string</text><text fill="#000000" font-family="sans-serif" font-size="14" lengthAdjust="spacing" textLength="167.0293" x="576.42" y="243.0757">tittel : LangString  [1..*]</text><text fill="#000000" font-family="sans-serif" font-size="14" lengthAdjust="spacing" textLength="213.4111" x="576.42" y="259.3726">beskrivelse : LangString  [0..*]</text><text fill="#000000" font-family="sans-serif" font-size="14" lengthAdjust="spacing" textLength="203.5332" x="576.42" y="275.6695">nokkelord : LangString  [0..*]</text><text fill="#000000" font-family="sans-serif" font-size="14" lengthAdjust="spacing" textLength="154.2461" x="576.42" y="291.9664">spraak : Spraak  [0..*]</text><text fill="#000000" font-family="sans-serif" font-size="14" lengthAdjust="spacing" textLength="201.9746" x="576.42" y="308.2632">har_versjonsnummer : string</text><text fill="#000000" font-family="sans-serif" font-size="14" lengthAdjust="spacing" textLength="137.7783" x="576.42" y="324.5601">endringsdato : date</text><text fill="#000000" font-family="sans-serif" font-size="14" lengthAdjust="spacing" textLength="147.834" x="576.42" y="340.857">utgivelsesdato : date</text><text fill="#000000" font-family="sans-serif" font-size="14" lengthAdjust="spacing" textLength="149.0781" x="576.42" y="357.1539">heimeside : uri  [0..*]</text><text fill="#000000" font-family="sans-serif" font-size="14" lengthAdjust="spacing" textLength="239.2236" x="576.42" y="373.4507">antall_nivaa : NonNegativeInteger</text></a></g><!--class Tidsrom--><g class="entity" data-qualified-name="Tidsrom" data-source-line="17" id="ent0002"><a href="" target="_top" title="Eit tidsrom med start- og/eller sluttdato (dct:PeriodOfTime)." xlink:actuate="onRequest" xlink:href="" xlink:show="new" xlink:title="Eit tidsrom med start- og/eller sluttdato (dct:PeriodOfTime)." xlink:type="simple"><rect fill="#F1F1F1" height="83.1875" rx="2.5" ry="2.5" style="stroke:#181818;stroke-width:0.5;" width="150.3115" x="927.88" y="457.75"/><text fill="#000000" font-family="sans-serif" font-size="14" lengthAdjust="spacing" textLength="56.5811" x="974.7452" y="475.7451">Tidsrom</text><line style="stroke:#181818;stroke-width:0.5;" x1="928.88" x2="1077.1915" y1="484.0469" y2="484.0469"/><text fill="#000000" font-family="sans-serif" font-size="14" lengthAdjust="spacing" textLength="94.0625" x="933.88" y="501.042">id : uriorcurie</text><text fill="#000000" font-family="sans-serif" font-size="14" lengthAdjust="spacing" textLength="138.3115" x="933.88" y="517.3389">tidsrom_start : date</text><text fill="#000000" font-family="sans-serif" font-size="14" lengthAdjust="spacing" textLength="136.7393" x="933.88" y="533.6357">tidsrom_slutt : date</text></a></g><!--class Organisasjon--><g class="entity" data-qualified-name="Organisasjon" data-source-line="24" id="ent0005"><a href="" target="_top" title="Ein organisasjon eller akt&#248;r (foaf:Agent)." xlink:actuate="onRequest" xlink:href="" xlink:show="new" xlink:title="Ein organisasjon eller akt&#248;r (foaf:Agent)." xlink:type="simple"><rect fill="#F1F1F1" height="50.5938" rx="2.5" ry="2.5" style="stroke:#181818;stroke-width:0.5;" width="106.0625" x="1088" y="474.05"/><text fill="#000000" font-family="sans-serif" font-size="14" lengthAdjust="spacing" textLength="91.499" x="1095.2817" y="492.0451">Organisasjon</text><line style="stroke:#181818;stroke-width:0.5;" x1="1089" x2="1193.0625" y1="500.3469" y2="500.3469"/><text fill="#000000" font-family="sans-serif" font-size="14" lengthAdjust="spacing" textLength="94.0625" x="1094" y="517.342">id : uriorcurie</text></a></g><!--class Klassifikasjonssamanlikning--><g class="entity" data-qualified-name="Klassifikasjonssamanlikning" data-source-line="27" id="ent0006"><a href="" target="_top" title="Ein samanlikning mellom to klassifikasjonar (xkos:Correspondence)." xlink:actuate="onRequest" xlink:href="" xlink:show="new" xlink:title="Ein samanlikning mellom to klassifikasjonar (xkos:Correspondence)." xlink:type="simple"><rect fill="#F1F1F1" height="83.1875" rx="2.5" ry="2.5" style="stroke:#181818;stroke-width:0.5;" width="200.9199" x="1043.57" y="7"/><text fill="#000000" font-family="sans-serif" font-size="14" lengthAdjust="spacing" textLength="194.9199" x="1046.57" y="24.9951">Klassifikasjonssamanlikning</text><line style="stroke:#181818;stroke-width:0.5;" x1="1044.57" x2="1243.4899" y1="33.2969" y2="33.2969"/><text fill="#000000" font-family="sans-serif" font-size="14" lengthAdjust="spacing" textLength="94.0625" x="1049.57" y="50.292">id : uriorcurie</text><text fill="#000000" font-family="sans-serif" font-size="14" lengthAdjust="spacing" textLength="185.8691" x="1049.57" y="66.5889">identifikator_literal : string</text><text fill="#000000" font-family="sans-serif" font-size="14" lengthAdjust="spacing" textLength="167.0293" x="1049.57" y="82.8857">tittel : LangString  [1..*]</text></a></g><!--class Mediatype--><g class="entity" data-qualified-name="Mediatype" data-source-line="36" id="ent0011"><a href="" target="_top" title="Ein medietype eller filformat (dct:MediaTypeOrExtent)." xlink:actuate="onRequest" xlink:href="" xlink:show="new" xlink:title="Ein medietype eller filformat (dct:MediaTypeOrExtent)." xlink:type="simple"><rect fill="#F1F1F1" height="50.5938" rx="2.5" ry="2.5" style="stroke:#181818;stroke-width:0.5;" width="106.0625" x="1254" y="23.3"/><text fill="#000000" font-family="sans-serif" font-size="14" lengthAdjust="spacing" textLength="73.3223" x="1270.3701" y="41.2951">Mediatype</text><line style="stroke:#181818;stroke-width:0.5;" x1="1255" x2="1359.0625" y1="49.5969" y2="49.5969"/><text fill="#000000" font-family="sans-serif" font-size="14" lengthAdjust="spacing" textLength="94.0625" x="1260" y="66.592">id : uriorcurie</text></a></g><!--class Konsept--><g class="entity" data-qualified-name="Konsept" data-source-line="39" id="ent0012"><a href="" target="_top" title="Referanse til eit SKOS-omgrep fr&#229; eit kontrollert vokabular." xlink:actuate="onRequest" xlink:href="" xlink:show="new" xlink:title="Referanse til eit SKOS-omgrep fr&#229; eit kontrollert vokabular." xlink:type="simple"><rect fill="#F1F1F1" height="50.5938" rx="2.5" ry="2.5" style="stroke:#181818;stroke-width:0.5;" width="106.0625" x="7" y="474.05"/><text fill="#000000" font-family="sans-serif" font-size="14" lengthAdjust="spacing" textLength="56.9023" x="31.5801" y="492.0451">Konsept</text><line style="stroke:#181818;stroke-width:0.5;" x1="8" x2="112.0625" y1="500.3469" y2="500.3469"/><text fill="#000000" font-family="sans-serif" font-size="14" lengthAdjust="spacing" textLength="94.0625" x="13" y="517.342">id : uriorcurie</text></a></g><!--class Kategorisamanlikning--><g class="entity" data-qualified-name="Kategorisamanlikning" data-source-line="44" id="ent0015"><a href="" target="_top" title="Ein samanlikning mellom to kategoriar p&#229; tvers av klassifikasjonar (xkos:ConceptAssociation)." xlink:actuate="onRequest" xlink:href="" xlink:show="new" xlink:title="Ein samanlikning mellom to kategoriar p&#229; tvers av klassifikasjonar (xkos:ConceptAssociation)." xlink:type="simple"><rect fill="#F1F1F1" height="50.5938" rx="2.5" ry="2.5" style="stroke:#181818;stroke-width:0.5;" width="158.332" x="1203.87" y="474.05"/><text fill="#000000" font-family="sans-serif" font-size="14" lengthAdjust="spacing" textLength="152.332" x="1206.87" y="492.0451">Kategorisamanlikning</text><line style="stroke:#181818;stroke-width:0.5;" x1="1204.87" x2="1361.202" y1="500.3469" y2="500.3469"/><text fill="#000000" font-family="sans-serif" font-size="14" lengthAdjust="spacing" textLength="94.0625" x="1209.87" y="517.342">id : uriorcurie</text></a></g><!--class Klassifikasjonsnivaa--><g class="entity" data-qualified-name="Klassifikasjonsnivaa" data-source-line="49" id="ent0018"><a href="" target="_top" title="Eit niv&#229; i ein klassifikasjon (xkos:ClassificationLevel)." xlink:actuate="onRequest" xlink:href="" xlink:show="new" xlink:title="Eit niv&#229; i ein klassifikasjon (xkos:ClassificationLevel)." xlink:type="simple"><rect fill="#F1F1F1" height="83.1875" rx="2.5" ry="2.5" style="stroke:#181818;stroke-width:0.5;" width="251.333" x="123.36" y="457.75"/><text fill="#000000" font-family="sans-serif" font-size="14" lengthAdjust="spacing" textLength="139.7539" x="179.1496" y="475.7451">Klassifikasjonsnivaa</text><line style="stroke:#181818;stroke-width:0.5;" x1="124.36" x2="373.693" y1="484.0469" y2="484.0469"/><text fill="#000000" font-family="sans-serif" font-size="14" lengthAdjust="spacing" textLength="94.0625" x="129.36" y="501.042">id : uriorcurie</text><text fill="#000000" font-family="sans-serif" font-size="14" lengthAdjust="spacing" textLength="167.0293" x="129.36" y="517.3389">tittel : LangString  [0..*]</text><text fill="#000000" font-family="sans-serif" font-size="14" lengthAdjust="spacing" textLength="239.333" x="129.36" y="533.6357">nivaa_djupn : NonNegativeInteger</text></a></g><!--class Kategori--><g class="entity" data-qualified-name="Kategori" data-source-line="54" id="ent0019"><a href="" target="_top" title="Ein kategori i ein klassifikasjon (skos:Concept)." xlink:actuate="onRequest" xlink:href="" xlink:show="new" xlink:title="Ein kategori i ein klassifikasjon (skos:Concept)." xlink:type="simple"><rect fill="#F1F1F1" height="83.1875" rx="2.5" ry="2.5" style="stroke:#181818;stroke-width:0.5;" width="244.5039" x="619.78" y="617.94"/><text fill="#000000" font-family="sans-serif" font-size="14" lengthAdjust="spacing" textLength="58.96" x="712.552" y="635.9351">Kategori</text><line style="stroke:#181818;stroke-width:0.5;" x1="620.78" x2="863.2839" y1="644.2369" y2="644.2369"/><text fill="#000000" font-family="sans-serif" font-size="14" lengthAdjust="spacing" textLength="94.0625" x="625.78" y="661.232">id : uriorcurie</text><text fill="#000000" font-family="sans-serif" font-size="14" lengthAdjust="spacing" textLength="232.5039" x="625.78" y="677.5289">anbefalt_term : LangString  [1..*]</text><text fill="#000000" font-family="sans-serif" font-size="14" lengthAdjust="spacing" textLength="201.373" x="625.78" y="693.8257">har_notat : LangString  [0..*]</text></a></g><!--class Begrepssamling--><g class="entity" data-qualified-name="Begrepssamling" data-source-line="80" id="ent0041"><a href="" target="_top" title="Ei SKOS-omgrepssamling (temavokabular)." xlink:actuate="onRequest" xlink:href="" xlink:show="new" xlink:title="Ei SKOS-omgrepssamling (temavokabular)." xlink:type="simple"><rect fill="#F1F1F1" height="50.5938" rx="2.5" ry="2.5" style="stroke:#181818;stroke-width:0.5;" width="118.7041" x="1369.68" y="23.3"/><text fill="#000000" font-family="sans-serif" font-size="14" lengthAdjust="spacing" textLength="112.7041" x="1372.68" y="41.2951">Begrepssamling</text><line style="stroke:#181818;stroke-width:0.5;" x1="1370.68" x2="1487.3841" y1="49.5969" y2="49.5969"/><text fill="#000000" font-family="sans-serif" font-size="14" lengthAdjust="spacing" textLength="94.0625" x="1375.68" y="66.592">id : uriorcurie</text></a></g><!--link Klassifikasjon to Tidsrom--><g class="link" data-entity-1="ent0001" data-entity-2="ent0002" data-link-type="dependency" data-source-line="22" id="lnk3"><path codeLine="22" d="M686.87,381.03 C690.15,398.4 696.87,414.89 709.03,427.75 C741.56,462.17 874.76,443.85 920.03,457.75 C922.48,458.51 920.244,457.6689 922.714,458.5389" fill="none" id="Klassifikasjon-to-Tidsrom" style="stroke:#181818;stroke-width:1;"/><polygon fill="#181818" points="927.43,460.2,920.2701,453.4372,922.714,458.5389,917.6123,460.9828,927.43,460.2" style="stroke:#181818;stroke-width:1;stroke-linejoin:miter;stroke-miterlimit:10;"/><text fill="#000000" font-family="sans-serif" font-size="13" lengthAdjust="spacing" textLength="112.2964" x="710.03" y="423.8169">gjeld_for_tidsrom</text><text fill="#000000" font-family="sans-serif" font-size="13" lengthAdjust="spacing" textLength="24.8066" x="895.1185" y="452.8275">0..1</text></g><!--link Klassifikasjon to Tidsrom--><g class="link" data-entity-1="ent0001" data-entity-2="ent0002" data-link-type="dependency" data-source-line="23" id="lnk4"><path codeLine="23" d="M793.68,380.91 C817.26,406.33 836.29,426.6 838.03,427.75 C870.36,449.23 884.33,442.54 920.03,457.75 C922.54,458.82 920.5058,457.9109 923.0658,459.0409" fill="none" id="Klassifikasjon-to-Tidsrom-1" style="stroke:#181818;stroke-width:1;"/><polygon fill="#181818" points="927.64,461.06,921.0217,453.7663,923.0658,459.0409,917.7912,461.085,927.64,461.06" style="stroke:#181818;stroke-width:1;stroke-linejoin:miter;stroke-miterlimit:10;"/><text fill="#000000" font-family="sans-serif" font-size="13" lengthAdjust="spacing" textLength="138.0107" x="839.03" y="423.8169">"gjeld_for_tidsrom"(i)</text><text fill="#000000" font-family="sans-serif" font-size="13" lengthAdjust="spacing" textLength="24.8066" x="895.0767" y="470.1032">0..1</text></g><!--link Klassifikasjon to Organisasjon--><g class="link" data-entity-1="ent0001" data-entity-2="ent0005" data-link-type="dependency" data-source-line="32" id="lnk7"><path codeLine="32" d="M821.96,325.2 C872.02,347.88 928.82,377.16 976.03,410.75 C984.74,416.95 983.94,422.14 993.03,427.75 C1028.9,449.92 1045.37,438.8 1083.03,457.75 C1091.92,462.23 1096.8903,465.0921 1105.1303,470.8021" fill="none" id="Klassifikasjon-to-Organisasjon" style="stroke:#181818;stroke-width:1;"/><polygon fill="#181818" points="1109.24,473.65,1104.1208,465.2361,1105.1303,470.8021,1099.5642,471.8116,1109.24,473.65" style="stroke:#181818;stroke-width:1;stroke-linejoin:miter;stroke-miterlimit:10;"/><text fill="#000000" font-family="sans-serif" font-size="13" lengthAdjust="spacing" textLength="54.2026" x="994.03" y="423.8169">utgjevar</text><text fill="#000000" font-family="sans-serif" font-size="13" lengthAdjust="spacing" textLength="8.271" x="1092.9946" y="463.0555">1</text></g><!--link Klassifikasjon to Organisasjon--><g class="link" data-entity-1="ent0001" data-entity-2="ent0005" data-link-type="dependency" data-source-line="34" id="lnk9"><path codeLine="34" d="M821.86,309.56 C891.6,332.1 977.91,365.74 1047.03,410.75 C1055.99,416.59 1056.31,420.37 1064.03,427.75 C1080.27,443.31 1095.1451,457.0024 1109.9751,470.4424" fill="none" id="Klassifikasjon-to-Organisasjon-1" style="stroke:#181818;stroke-width:1;"/><polygon fill="#181818" points="1113.68,473.8,1109.6973,464.7923,1109.9751,470.4424,1104.3251,470.7202,1113.68,473.8" style="stroke:#181818;stroke-width:1;stroke-linejoin:miter;stroke-miterlimit:10;"/><text fill="#000000" font-family="sans-serif" font-size="13" lengthAdjust="spacing" textLength="79.917" x="1065.03" y="423.8169">"utgjevar"(i)</text><text fill="#000000" font-family="sans-serif" font-size="13" lengthAdjust="spacing" textLength="24.8066" x="1055.6006" y="470.134">0..1</text></g><!--link Klassifikasjonssamanlikning to Organisasjon--><g class="link" data-entity-1="ent0006" data-entity-2="ent0005" data-link-type="dependency" data-source-line="33" id="lnk8"><path codeLine="33" d="M1130.92,90.47 C1124.43,112.87 1117.29,141.27 1114.03,167.19 C1102.21,261.37 1078.45,292.76 1114.03,380.75 C1120.98,397.95 1136.08,393.56 1143.03,410.75 C1151.13,430.78 1150.4352,450.6053 1147.4852,468.6853" fill="none" id="Klassifikasjonssamanlikning-to-Organisasjon" style="stroke:#181818;stroke-width:1;"/><polygon fill="#181818" points="1146.68,473.62,1152.0771,465.3816,1147.4852,468.6853,1144.1815,464.0933,1146.68,473.62" style="stroke:#181818;stroke-width:1;stroke-linejoin:miter;stroke-miterlimit:10;"/><text fill="#000000" font-family="sans-serif" font-size="13" lengthAdjust="spacing" textLength="54.2026" x="1115.03" y="278.5369">utgjevar</text><text fill="#000000" font-family="sans-serif" font-size="13" lengthAdjust="spacing" textLength="8.271" x="1139.0926" y="463.0185">1</text></g><!--link Klassifikasjonssamanlikning to Organisasjon--><g class="link" data-entity-1="ent0006" data-entity-2="ent0005" data-link-type="dependency" data-source-line="35" id="lnk10"><path codeLine="35" d="M1154.52,90.65 C1159.72,113.09 1165.43,141.49 1168.03,167.19 C1177.57,261.63 1178.72,286.44 1168.03,380.75 C1164.33,413.43 1156.3666,445.4476 1149.7166,469.0376" fill="none" id="Klassifikasjonssamanlikning-to-Organisasjon-1" style="stroke:#181818;stroke-width:1;"/><polygon fill="#181818" points="1148.36,473.85,1154.6519,466.2729,1149.7166,469.0376,1146.952,464.1023,1148.36,473.85" style="stroke:#181818;stroke-width:1;stroke-linejoin:miter;stroke-miterlimit:10;"/><text fill="#000000" font-family="sans-serif" font-size="13" lengthAdjust="spacing" textLength="79.917" x="1176.62" y="278.5369">"utgjevar"(i)</text><text fill="#000000" font-family="sans-serif" font-size="13" lengthAdjust="spacing" textLength="24.8066" x="1118.9184" y="463.0555">0..1</text></g><!--link Klassifikasjon to Konsept--><g class="link" data-entity-1="ent0001" data-entity-2="ent0012" data-link-type="dependency" data-source-line="42" id="lnk13"><path codeLine="42" d="M570.04,288.08 C455.55,304.14 284.87,338.69 153.03,410.75 C123.84,426.71 100.2083,450.2647 82.9283,470.1647" fill="none" id="Klassifikasjon-to-Konsept" style="stroke:#181818;stroke-width:1;"/><polygon fill="#181818" points="79.65,473.94,88.5711,469.767,82.9283,470.1647,82.5306,464.5218,79.65,473.94" style="stroke:#181818;stroke-width:1;stroke-linejoin:miter;stroke-miterlimit:10;"/><text fill="#000000" font-family="sans-serif" font-size="13" lengthAdjust="spacing" textLength="33.7251" x="154.03" y="423.8169">tema</text><text fill="#000000" font-family="sans-serif" font-size="13" lengthAdjust="spacing" textLength="23.0356" x="58.6333" y="463.002">0..*</text></g><!--link Klassifikasjon to Konsept--><g class="link" data-entity-1="ent0001" data-entity-2="ent0012" data-link-type="dependency" data-source-line="43" id="lnk14"><path codeLine="43" d="M569.92,312.45 C481.3,339.09 360.11,376.14 254.03,410.75 C193.23,430.59 175,428.7 118.03,457.75 C109.16,462.28 104.209,465.1511 95.959,470.8711" fill="none" id="Klassifikasjon-to-Konsept-1" style="stroke:#181818;stroke-width:1;"/><polygon fill="#181818" points="91.85,473.72,101.5253,471.8792,95.959,470.8711,96.9671,465.3048,91.85,473.72" style="stroke:#181818;stroke-width:1;stroke-linejoin:miter;stroke-miterlimit:10;"/><text fill="#000000" font-family="sans-serif" font-size="13" lengthAdjust="spacing" textLength="59.4395" x="255.03" y="423.8169">"tema"(i)</text><text fill="#000000" font-family="sans-serif" font-size="13" lengthAdjust="spacing" textLength="23.0356" x="73.5528" y="463.1417">0..*</text></g><!--link Klassifikasjonssamanlikning to Kategorisamanlikning--><g class="link" data-entity-1="ent0006" data-entity-2="ent0015" data-link-type="dependency" data-source-line="47" id="lnk16"><path codeLine="47" d="M1198.58,90.61 C1221.39,110.95 1245.66,137.51 1259.03,167.19 C1283.66,221.85 1284.162,401.3003 1283.462,468.5503" fill="none" id="Klassifikasjonssamanlikning-to-Kategorisamanlikning" style="stroke:#181818;stroke-width:1;"/><polygon fill="#181818" points="1283.41,473.55,1287.5035,464.5921,1283.462,468.5503,1279.5039,464.5089,1283.41,473.55" style="stroke:#181818;stroke-width:1;stroke-linejoin:miter;stroke-miterlimit:10;"/><text fill="#000000" font-family="sans-serif" font-size="13" lengthAdjust="spacing" textLength="63.5908" x="1283.9" y="278.5369">bestar_av</text><text fill="#000000" font-family="sans-serif" font-size="13" lengthAdjust="spacing" textLength="23.0356" x="1257.8412" y="462.9323">1..*</text></g><!--link Klassifikasjonssamanlikning to Kategorisamanlikning--><g class="link" data-entity-1="ent0006" data-entity-2="ent0015" data-link-type="dependency" data-source-line="71" id="lnk32"><path codeLine="71" d="M1235.7,90.61 C1284.29,114.43 1336.67,144.18 1350.03,167.19 C1397.69,249.28 1374.34,289 1350.03,380.75 C1340.77,415.73 1321.3222,447.1228 1304.9722,469.8228" fill="none" id="Klassifikasjonssamanlikning-to-Kategorisamanlikning-1" style="stroke:#181818;stroke-width:1;"/><polygon fill="#181818" points="1302.05,473.88,1310.5557,468.9149,1304.9722,469.8228,1304.0643,464.2393,1302.05,473.88" style="stroke:#181818;stroke-width:1;stroke-linejoin:miter;stroke-miterlimit:10;"/><text fill="#000000" font-family="sans-serif" font-size="13" lengthAdjust="spacing" textLength="89.3052" x="1378.69" y="278.5369">"bestar_av"(i)</text><text fill="#000000" font-family="sans-serif" font-size="13" lengthAdjust="spacing" textLength="23.0356" x="1288.6531" y="463.1238">0..*</text></g><!--link Klassifikasjonssamanlikning to Klassifikasjon--><g class="link" data-entity-1="ent0006" data-entity-2="ent0001" data-link-type="dependency" data-source-line="48" id="lnk17"><path codeLine="48" d="M1043.31,59.23 C983.01,68.36 906.58,86.04 846.03,120.19 C824.02,132.61 806.7541,145.7865 787.9241,163.4765" fill="none" id="Klassifikasjonssamanlikning-to-Klassifikasjon" style="stroke:#181818;stroke-width:1;"/><polygon fill="#181818" points="784.28,166.9,793.5782,163.653,787.9241,163.4765,788.1006,157.8224,784.28,166.9" style="stroke:#181818;stroke-width:1;stroke-linejoin:miter;stroke-miterlimit:10;"/><text fill="#000000" font-family="sans-serif" font-size="13" lengthAdjust="spacing" textLength="79.9106" x="847.03" y="133.2569">samanliknar</text><text fill="#000000" font-family="sans-serif" font-size="13" lengthAdjust="spacing" textLength="23.0356" x="766.4377" y="156.2736">1..*</text></g><!--link Klassifikasjonssamanlikning to Klassifikasjon--><g class="link" data-entity-1="ent0006" data-entity-2="ent0001" data-link-type="dependency" data-source-line="68" id="lnk29"><path codeLine="68" d="M1053.5,90.54 C1032.88,100.09 1011.13,110.36 991.03,120.19 C935.21,147.51 878.5516,176.5846 826.5116,203.7746" fill="none" id="Klassifikasjonssamanlikning-to-Klassifikasjon-1" style="stroke:#181818;stroke-width:1;"/><polygon fill="#181818" points="822.08,206.09,831.9092,205.4675,826.5116,203.7746,828.2045,198.377,822.08,206.09" style="stroke:#181818;stroke-width:1;stroke-linejoin:miter;stroke-miterlimit:10;"/><text fill="#000000" font-family="sans-serif" font-size="13" lengthAdjust="spacing" textLength="105.625" x="992.03" y="133.2569">"samanliknar"(i)</text><text fill="#000000" font-family="sans-serif" font-size="13" lengthAdjust="spacing" textLength="23.0356" x="829.8696" y="182.916">0..*</text></g><!--link Klassifikasjonsnivaa to Klassifikasjonsnivaa--><g class="link" data-entity-1="ent0018" data-entity-2="ent0018" data-link-type="dependency" data-source-line="59" id="lnk20"><path codeLine="59" d="M375,489.77 C381.11,492.17 384.7,495.36 384.7,499.35 C384.7,503.34 385.7639,504.702 379.6539,507.102" fill="none" id="Klassifikasjonsnivaa-to-Klassifikasjonsnivaa" style="stroke:#181818;stroke-width:1;"/><polygon fill="#181818" points="375,508.93,384.8394,509.3626,379.6539,507.102,381.9145,501.9165,375,508.93" style="stroke:#181818;stroke-width:1;stroke-linejoin:miter;stroke-miterlimit:10;"/><text fill="#000000" font-family="sans-serif" font-size="13" lengthAdjust="spacing" textLength="211.104" x="390.7" y="503.9169">underordna_klassifikasjonsnivaa</text><text fill="#000000" font-family="sans-serif" font-size="13" lengthAdjust="spacing" textLength="23.0356" x="382.7695" y="506.5754">0..*</text></g><!--link Klassifikasjonsnivaa to Kategori--><g class="link" data-entity-1="ent0018" data-entity-2="ent0019" data-link-type="dependency" data-source-line="60" id="lnk21"><path codeLine="60" d="M375.19,527.08 C410.3,537.65 447.45,551.94 479.03,570.94 C488.19,576.45 486.83,582.52 496.03,587.94 C533.55,610.05 573.553,624.3036 614.613,635.0536" fill="none" id="Klassifikasjonsnivaa-to-Kategori" style="stroke:#181818;stroke-width:1;"/><polygon fill="#181818" points="619.45,636.32,611.7566,630.1709,614.613,635.0536,609.7304,637.9101,619.45,636.32" style="stroke:#181818;stroke-width:1;stroke-linejoin:miter;stroke-miterlimit:10;"/><text fill="#000000" font-family="sans-serif" font-size="13" lengthAdjust="spacing" textLength="81.2373" x="497.03" y="584.0069">har_medlem</text><text fill="#000000" font-family="sans-serif" font-size="13" lengthAdjust="spacing" textLength="23.0356" x="588.6994" y="631.6151">1..*</text></g><!--link Kategori to Klassifikasjonsnivaa--><g class="link" data-entity-1="ent0019" data-entity-2="ent0018" data-link-type="dependency" data-source-line="61" id="lnk22"><path codeLine="61" d="M619.66,655.1 C427.43,648.42 72.5,630.44 34.03,587.94 C28.96,582.34 29.6,577.06 34.03,570.94 C35.64,568.72 72.2402,556.4511 118.2502,541.6511" fill="none" id="Kategori-to-Klassifikasjonsnivaa" style="stroke:#181818;stroke-width:1;"/><polygon fill="#181818" points="123.01,540.12,113.2175,539.0681,118.2502,541.6511,115.6672,546.6838,123.01,540.12" style="stroke:#181818;stroke-width:1;stroke-linejoin:miter;stroke-miterlimit:10;"/><text fill="#000000" font-family="sans-serif" font-size="13" lengthAdjust="spacing" textLength="201.5889" x="35.03" y="584.0069">tilhorande_klassifikasjonsnivaa</text><text fill="#000000" font-family="sans-serif" font-size="13" lengthAdjust="spacing" textLength="24.8066" x="90.8537" y="551.4394">0..1</text></g><!--link Kategori to Klassifikasjonsnivaa--><g class="link" data-entity-1="ent0019" data-entity-2="ent0018" data-link-type="dependency" data-source-line="64" id="lnk25"><path codeLine="64" d="M619.56,658.64 C489.16,655.84 295.18,642.31 248.03,587.94 C237.17,575.42 235.1469,562.6447 237.0869,546.4047" fill="none" id="Kategori-to-Klassifikasjonsnivaa-1" style="stroke:#181818;stroke-width:1;"/><polygon fill="#181818" points="237.68,541.44,232.6407,549.902,237.0869,546.4047,240.5842,550.8509,237.68,541.44" style="stroke:#181818;stroke-width:1;stroke-linejoin:miter;stroke-miterlimit:10;"/><text fill="#000000" font-family="sans-serif" font-size="13" lengthAdjust="spacing" textLength="227.3032" x="249.03" y="584.0069">"tilhorande_klassifikasjonsnivaa"(i)</text><text fill="#000000" font-family="sans-serif" font-size="13" lengthAdjust="spacing" textLength="24.8066" x="199.0537" y="560.6043">0..1</text></g><!--link Klassifikasjonsnivaa to Kategori--><g class="link" data-entity-1="ent0018" data-entity-2="ent0019" data-link-type="dependency" data-source-line="77" id="lnk38"><path codeLine="77" d="M374.83,510.42 C438.47,519.62 515.13,537.23 577.03,570.94 C586.42,576.05 585.31,581.78 594.03,587.94 C609.37,598.79 622.1882,606.4536 639.3782,615.2436" fill="none" id="Klassifikasjonsnivaa-to-Kategori-1" style="stroke:#181818;stroke-width:1;"/><polygon fill="#181818" points="643.83,617.52,637.6379,609.8611,639.3782,615.2436,633.9957,616.9839,643.83,617.52" style="stroke:#181818;stroke-width:1;stroke-linejoin:miter;stroke-miterlimit:10;"/><text fill="#000000" font-family="sans-serif" font-size="13" lengthAdjust="spacing" textLength="106.9517" x="595.03" y="584.0069">"har_medlem"(i)</text><text fill="#000000" font-family="sans-serif" font-size="13" lengthAdjust="spacing" textLength="23.0356" x="604.0346" y="607.0153">0..*</text></g><!--link Klassifikasjon to Klassifikasjonsnivaa--><g class="link" data-entity-1="ent0001" data-entity-2="ent0018" data-link-type="dependency" data-source-line="62" id="lnk23"><path codeLine="62" d="M569.95,309.04 C498.8,331.57 410.18,365.39 339.03,410.75 C318.99,423.53 303.1613,437.7017 287.6213,453.9017" fill="none" id="Klassifikasjon-to-Klassifikasjonsnivaa" style="stroke:#181818;stroke-width:1;"/><polygon fill="#181818" points="284.16,457.51,293.2769,453.7841,287.6213,453.9017,287.5037,448.2461,284.16,457.51" style="stroke:#181818;stroke-width:1;stroke-linejoin:miter;stroke-miterlimit:10;"/><text fill="#000000" font-family="sans-serif" font-size="13" lengthAdjust="spacing" textLength="79.7202" x="340.03" y="423.8169">forste_nivaa</text><text fill="#000000" font-family="sans-serif" font-size="13" lengthAdjust="spacing" textLength="23.0356" x="264.9294" y="446.7249">0..*</text></g><!--link Klassifikasjon to Klassifikasjonsnivaa--><g class="link" data-entity-1="ent0001" data-entity-2="ent0018" data-link-type="dependency" data-source-line="63" id="lnk24"><path codeLine="63" d="M570.2,347.84 C523.05,374.16 468.63,403.37 418.03,427.75 C396.98,437.9 378.6835,446.0887 356.7435,455.3887" fill="none" id="Klassifikasjon-to-Klassifikasjonsnivaa-1" style="stroke:#181818;stroke-width:1;"/><polygon fill="#181818" points="352.14,457.34,361.9874,457.5104,356.7435,455.3887,358.8652,450.1448,352.14,457.34" style="stroke:#181818;stroke-width:1;stroke-linejoin:miter;stroke-miterlimit:10;"/><text fill="#000000" font-family="sans-serif" font-size="13" lengthAdjust="spacing" textLength="105.4346" x="449.88" y="423.8169">"forste_nivaa"(i)</text><text fill="#000000" font-family="sans-serif" font-size="13" lengthAdjust="spacing" textLength="23.0356" x="343.171" y="446.8368">0..*</text></g><!--link Klassifikasjon to Klassifikasjon--><g class="link" data-entity-1="ent0001" data-entity-2="ent0001" data-link-type="dependency" data-source-line="65" id="lnk26"><path codeLine="65" d="M821.95,256.59 C828.05,260.94 831.64,266.74 831.64,273.97 C831.64,281.21 832.1178,284.0925 826.0178,288.4525" fill="none" id="Klassifikasjon-to-Klassifikasjon" style="stroke:#181818;stroke-width:1;"/><polygon fill="#181818" points="821.95,291.36,831.5979,289.3808,826.0178,288.4525,826.946,282.8724,821.95,291.36" style="stroke:#181818;stroke-width:1;stroke-linejoin:miter;stroke-miterlimit:10;"/><text fill="#000000" font-family="sans-serif" font-size="13" lengthAdjust="spacing" textLength="129.8223" x="837.64" y="278.5369">er_samanlikna_med</text><text fill="#000000" font-family="sans-serif" font-size="13" lengthAdjust="spacing" textLength="23.0356" x="829.7047" y="291.1023">0..*</text></g><!--link Kategori to Klassifikasjon--><g class="link" data-entity-1="ent0019" data-entity-2="ent0001" data-link-type="dependency" data-source-line="66" id="lnk27"><path codeLine="66" d="M728.77,617.76 C722.06,601.75 712.62,584.11 700.03,570.94 C680.52,550.54 658.54,565.17 644.03,540.94 C615.33,493.01 622.7929,437.0274 640.8129,385.7274" fill="none" id="Kategori-to-Klassifikasjon" style="stroke:#181818;stroke-width:1;"/><polygon fill="#181818" points="642.47,381.01,635.7133,388.1757,640.8129,385.7274,643.2612,390.827,642.47,381.01" style="stroke:#181818;stroke-width:1;stroke-linejoin:miter;stroke-miterlimit:10;"/><text fill="#000000" font-family="sans-serif" font-size="13" lengthAdjust="spacing" textLength="116.4795" x="645.03" y="503.9169">er_i_klassifikasjon</text><text fill="#000000" font-family="sans-serif" font-size="13" lengthAdjust="spacing" textLength="8.271" x="621.1902" y="401.1106">1</text></g><!--link Kategori to Klassifikasjon--><g class="link" data-entity-1="ent0019" data-entity-2="ent0001" data-link-type="dependency" data-source-line="67" id="lnk28"><path codeLine="67" d="M749.86,617.62 C753.77,595.1 758.08,566.58 760.03,540.94 C762.84,504.08 779.96,488.9 760.03,457.75 C742.88,430.95 712.18,454.56 695.03,427.75 C686.1,413.79 682.0927,402.5136 680.3827,385.9236" fill="none" id="Kategori-to-Klassifikasjon-1" style="stroke:#181818;stroke-width:1;"/><polygon fill="#181818" points="679.87,380.95,676.8139,390.3127,680.3827,385.9236,684.7717,389.4924,679.87,380.95" style="stroke:#181818;stroke-width:1;stroke-linejoin:miter;stroke-miterlimit:10;"/><text fill="#000000" font-family="sans-serif" font-size="13" lengthAdjust="spacing" textLength="142.1938" x="770.54" y="503.9169">"er_i_klassifikasjon"(i)</text><text fill="#000000" font-family="sans-serif" font-size="13" lengthAdjust="spacing" textLength="24.8066" x="649.4508" y="401.0367">0..1</text></g><!--link Kategorisamanlikning to Kategori--><g class="link" data-entity-1="ent0015" data-entity-2="ent0019" data-link-type="dependency" data-source-line="69" id="lnk30"><path codeLine="69" d="M1250.28,524.97 C1222.01,545 1179.32,572.41 1138.03,587.94 C1049.8,621.15 949.4655,638.3734 869.6355,647.8034" fill="none" id="Kategorisamanlikning-to-Kategori" style="stroke:#181818;stroke-width:1;"/><polygon fill="#181818" points="864.67,648.39,874.0771,651.3066,869.6355,647.8034,873.1386,643.3618,864.67,648.39" style="stroke:#181818;stroke-width:1;stroke-linejoin:miter;stroke-miterlimit:10;"/><text fill="#000000" font-family="sans-serif" font-size="13" lengthAdjust="spacing" textLength="82.6719" x="1172.85" y="584.0069">maalomgrep</text><text fill="#000000" font-family="sans-serif" font-size="13" lengthAdjust="spacing" textLength="24.8066" x="872.4771" y="644.3829">0..1</text></g><!--link Kategorisamanlikning to Kategori--><g class="link" data-entity-1="ent0015" data-entity-2="ent0019" data-link-type="dependency" data-source-line="70" id="lnk31"><path codeLine="70" d="M1282.94,524.97 C1281.46,545 1275.95,572.4 1258.03,587.94 C1200.91,637.48 1003.1773,652.2552 869.4773,656.6652" fill="none" id="Kategorisamanlikning-to-Kategori-1" style="stroke:#181818;stroke-width:1;"/><polygon fill="#181818" points="864.48,656.83,873.607,660.5311,869.4773,656.6652,873.3432,652.5355,864.48,656.83" style="stroke:#181818;stroke-width:1;stroke-linejoin:miter;stroke-miterlimit:10;"/><text fill="#000000" font-family="sans-serif" font-size="13" lengthAdjust="spacing" textLength="89.4639" x="1271.11" y="584.0069">kjeldeomgrep</text><text fill="#000000" font-family="sans-serif" font-size="13" lengthAdjust="spacing" textLength="24.8066" x="871.6569" y="651.0458">0..1</text></g><!--link Kategorisamanlikning to Kategori--><g class="link" data-entity-1="ent0015" data-entity-2="ent0019" data-link-type="dependency" data-source-line="78" id="lnk39"><path codeLine="78" d="M1239.27,525.07 C1226.64,531.21 1212.59,537.12 1199.03,540.94 C1069.2,577.52 1025.62,530.22 897.03,570.94 C863.29,581.63 832.9764,597.6403 805.0664,614.9903" fill="none" id="Kategorisamanlikning-to-Kategori-2" style="stroke:#181818;stroke-width:1;"/><polygon fill="#181818" points="800.82,617.63,810.5753,616.2756,805.0664,614.9903,806.3517,609.4814,800.82,617.63" style="stroke:#181818;stroke-width:1;stroke-linejoin:miter;stroke-miterlimit:10;"/><text fill="#000000" font-family="sans-serif" font-size="13" lengthAdjust="spacing" textLength="115.1782" x="898.03" y="584.0069">"kjeldeomgrep"(i)</text><text fill="#000000" font-family="sans-serif" font-size="13" lengthAdjust="spacing" textLength="24.8066" x="784.3411" y="606.8338">0..1</text></g><!--link Kategorisamanlikning to Kategori--><g class="link" data-entity-1="ent0015" data-entity-2="ent0019" data-link-type="dependency" data-source-line="79" id="lnk40"><path codeLine="79" d="M1237.77,525.06 C1225.48,530.98 1211.98,536.78 1199.03,540.94 C1124.74,564.82 1093.49,531.71 1026.03,570.94 C1017.57,575.86 1020.28,582.67 1012.03,587.94 C968.05,616.06 918.1438,631.995 869.4438,642.195" fill="none" id="Kategorisamanlikning-to-Kategori-3" style="stroke:#181818;stroke-width:1;"/><polygon fill="#181818" points="864.55,643.22,874.1789,645.2901,869.4438,642.195,872.5389,637.46,864.55,643.22" style="stroke:#181818;stroke-width:1;stroke-linejoin:miter;stroke-miterlimit:10;"/><text fill="#000000" font-family="sans-serif" font-size="13" lengthAdjust="spacing" textLength="108.3862" x="1027.03" y="584.0069">"maalomgrep"(i)</text><text fill="#000000" font-family="sans-serif" font-size="13" lengthAdjust="spacing" textLength="24.8066" x="871.7466" y="633.608">0..1</text></g><!--link Kategori to Kategori--><g class="link" data-entity-1="ent0019" data-entity-2="ent0019" data-link-type="dependency" data-source-line="72" id="lnk33"><path codeLine="72" d="M864.48,657.59 C870.65,658.07 874.28,658.72 874.28,659.54 C874.28,660.35 875.6349,660.6122 869.4649,661.0922" fill="none" id="Kategori-to-Kategori" style="stroke:#181818;stroke-width:1;"/><polygon fill="#181818" points="864.48,661.48,873.7631,664.7699,869.4649,661.0922,873.1426,656.794,864.48,661.48" style="stroke:#181818;stroke-width:1;stroke-linejoin:miter;stroke-miterlimit:10;"/><text fill="#000000" font-family="sans-serif" font-size="13" lengthAdjust="spacing" textLength="159.4722" x="880.28" y="664.1069">er_ikkje_ekvivalent_med</text><text fill="#000000" font-family="sans-serif" font-size="13" lengthAdjust="spacing" textLength="23.0356" x="872.6892" y="657.0036">0..*</text></g><!--link Kategori to Kategori--><g class="link" data-entity-1="ent0019" data-entity-2="ent0019" data-link-type="dependency" data-source-line="73" id="lnk34"><path codeLine="73" d="M864.52,653.83 C949.67,652.74 1045.28,654.64 1045.28,659.54 C1045.28,664.43 954.6696,666.404 869.5196,665.314" fill="none" id="Kategori-to-Kategori-1" style="stroke:#181818;stroke-width:1;"/><polygon fill="#181818" points="864.52,665.25,873.4681,669.3649,869.5196,665.314,873.5705,661.3655,864.52,665.25" style="stroke:#181818;stroke-width:1;stroke-linejoin:miter;stroke-miterlimit:10;"/><text fill="#000000" font-family="sans-serif" font-size="13" lengthAdjust="spacing" textLength="194.0479" x="1051.28" y="664.1069">er_eksklusivt_ekvivalent_med</text><text fill="#000000" font-family="sans-serif" font-size="13" lengthAdjust="spacing" textLength="23.0356" x="872.7404" y="681.0526">0..*</text></g><!--link Kategori to Kategori--><g class="link" data-entity-1="ent0019" data-entity-2="ent0019" data-link-type="dependency" data-source-line="74" id="lnk35"><path codeLine="74" d="M864.52,652.2 C1016.67,648.5 1251.28,650.94 1251.28,659.54 C1251.28,668.13 1021.6685,670.7016 869.5185,667.0016" fill="none" id="Kategori-to-Kategori-2" style="stroke:#181818;stroke-width:1;"/><polygon fill="#181818" points="864.52,666.88,873.4201,671.0976,869.5185,667.0016,873.6146,663.1,864.52,666.88" style="stroke:#181818;stroke-width:1;stroke-linejoin:miter;stroke-miterlimit:10;"/><text fill="#000000" font-family="sans-serif" font-size="13" lengthAdjust="spacing" textLength="122.6938" x="1257.28" y="664.1069">er_ekvivalent_med</text><text fill="#000000" font-family="sans-serif" font-size="13" lengthAdjust="spacing" textLength="23.0356" x="872.7404" y="683.1411">0..*</text></g><!--link Kategori to Kategori--><g class="link" data-entity-1="ent0019" data-entity-2="ent0019" data-link-type="dependency" data-source-line="75" id="lnk36"><path codeLine="75" d="M864.62,650.55 C1053.01,644.51 1385.28,647.51 1385.28,659.54 C1385.28,671.57 1058.0074,674.7202 869.6174,668.6802" fill="none" id="Kategori-to-Kategori-3" style="stroke:#181818;stroke-width:1;"/><polygon fill="#181818" points="864.62,668.52,873.4872,672.8063,869.6174,668.6802,873.7436,664.8105,864.62,668.52" style="stroke:#181818;stroke-width:1;stroke-linejoin:miter;stroke-miterlimit:10;"/><text fill="#000000" font-family="sans-serif" font-size="13" lengthAdjust="spacing" textLength="136.0811" x="1391.28" y="664.1069">underordna_kategori</text><text fill="#000000" font-family="sans-serif" font-size="13" lengthAdjust="spacing" textLength="23.0356" x="872.373" y="665.6767">0..*</text></g><!--link Kategori to Kategori--><g class="link" data-entity-1="ent0019" data-entity-2="ent0019" data-link-type="dependency" data-source-line="76" id="lnk37"><path codeLine="76" d="M864.57,649.17 C1088.74,640.5 1533.28,643.95 1533.28,659.54 C1533.28,675.12 1093.7363,678.7735 869.5663,670.0935" fill="none" id="Kategori-to-Kategori-4" style="stroke:#181818;stroke-width:1;"/><polygon fill="#181818" points="864.57,669.9,873.4085,674.2452,869.5663,670.0935,873.718,666.2512,864.57,669.9" style="stroke:#181818;stroke-width:1;stroke-linejoin:miter;stroke-miterlimit:10;"/><text fill="#000000" font-family="sans-serif" font-size="13" lengthAdjust="spacing" textLength="126.9976" x="1539.28" y="664.1069">overordna_kategori</text><text fill="#000000" font-family="sans-serif" font-size="13" lengthAdjust="spacing" textLength="23.0356" x="872.8045" y="687.0105">0..*</text></g><?plantuml-src nLRDRjiu4BxxAGYTd09EcwiF2tGNFIoIDiKwjo0Gnj98PaYH0aa93G8_phx3tljYEvHbMPAbM7O3r0VRecQ6CzzyysC5LpaOo9ZICLhCsSsdsOR7o29k8ecx_vZbxeLbcAtHs5aamLeMtFeVdd01zbchW3q-ldxXJ7HEsO8XLyo-M8SPE6u5iyuKmXM6GSa4E4oruM3OsfyonoNx-MzZnA915eC3DhT2s-LVMaMOkrMqmGolhhTFJ-nrnkZpcd2KyPRnc2rPORWs4NqZOxstg5pbczCcbDoX0KaAv19NQK_OSUVGlxq3bQvgYSURw-iFJnsvDLfXU8dIOb_uqv6mqaAWr2O-BMfp0o18RhNxCoIp0HEMb192sgeYoz2CHOCgzgUMmDGaGpzzS0gNxg9uGsQ3F4Fh6L6XFEWJA0TIXegN02JsJQjlc5BgI_nRKRR9HJRRxZdqm6DhT5QJn-U_UYQgnHG76BTWEls8KfAQbOLpbM_pE7BBxqXfZk-J1tu95UgBmkgIuM0R4N_lGMGxEsB-Ol472mY9cw0LqP85wJCP2XFYMcqh-1NTER_QmtPlKb3SjWjFCTqwP3l8GBYV_nasJpGaoyyfiNyQKjlX6hSMCb2I2qLKQkvj7rBYfAJyKPAwZO0gVFvZLyB6eCsrebgCVcSDZ-NH9wABBsM3YkCPIp172Un1Se65BWN6zNpw9rm-oKwTtQyOSt0lEJQvfBhZw4zg0YLS4WMfS-zghb9ueDVtviiFTm6To6VgtzLr_s12gQFdgkaZ5V_gzdwrq5bgQ0ebXiQ0FnHQEQEzCuwLMi2wa60ctZgAz8UWvGk1uuTJSAPu2yVRUeoTLHw7qPTJgCwtyMeaZfLDDVa-MwiZoXdNwkeo40O9MuSu60R5IoEEscG8PN2EjHwOPASHzcKmt66giT6C0teYR7YrG_GMYngM-Z2g8Bb36c2Np8AXBZ4mlBrlOVnSvEhaODjZsT1Wd--HQDhhpVaHW5fZ0jA5r0spqokBNnkKTk26OpxcJ9sLJZqCIlX6GvtTq8QZ81H3CcyQxp6nCkYzfRuaiHgVpPjsjnjrXbhBHbENYN6QCnDZf9v82stuVZPspVrzOniO66-vLjb44nwArAD-3FdDg2Rl-J4nNQFgqoVUX7xJGNXyRdQObm78tJmApjOLVd_3W_RaC4utuH6o71MEnrIG7o6AaXWXQLuFftH46OKLih2yT9TRE5-jtJ_svvCKTJcaTxgHZVIQImZJIVelCgwrN_o9_iIJHXusY_Qwj7_5vdurQTQaYIl2_m00?></g></svg>